<svg version="1.1" id="Layer_1" xmlns="http://www.w3.org/2000/svg" xmlns:xlink="http://www.w3.org/1999/xlink" x="0px" y="0px"
	 width="100%" viewBox="0 0 1251 1353" enable-background="new 0 0 1251 1353" xml:space="preserve">
<path fill="#4285F4" opacity="1.000000" stroke="none" 
	d="
M1040.357788,430.115112 
	C1049.366943,442.435242 1054.407959,456.391266 1056.878174,471.293640 
	C1057.736572,476.472351 1057.951172,481.807251 1057.953613,487.071045 
	C1058.010132,611.732300 1058.059814,736.393616 1057.944946,861.054810 
	C1057.921875,886.023010 1051.571533,909.263733 1035.449585,928.832642 
	C1027.171387,938.880920 1017.105042,947.185242 1005.687683,953.777222 
	C986.265991,964.990479 966.995667,976.465881 947.667114,987.840271 
	C931.419128,997.401855 915.158447,1006.942139 898.940491,1016.554504 
	C881.604675,1026.829468 864.347656,1037.237671 846.991150,1047.477295 
	C829.495239,1057.799316 811.880920,1067.920654 794.388245,1078.248169 
	C772.832031,1090.974609 751.413513,1103.935303 729.813049,1116.585693 
	C710.459412,1127.920166 691.109375,1139.281616 671.432556,1150.036255 
	C658.655762,1157.019531 644.585144,1159.940063 629.447449,1159.506592 
	C628.941895,1099.995850 628.967590,1040.969238 629.007385,981.942566 
	C629.010071,977.955444 629.118896,973.968506 629.585815,969.963379 
	C640.039001,968.971802 649.597839,966.464905 658.378174,961.281799 
	C696.353638,938.864868 734.354309,916.490662 772.343384,894.096802 
	C797.717834,879.138977 823.162231,864.297363 848.415161,849.137024 
	C855.935242,844.622375 863.698242,840.026672 869.976318,834.030029 
	C883.088196,821.505981 887.862305,805.111816 887.886597,787.365845 
	C887.987915,713.380371 887.998169,639.394531 887.812866,565.409424 
	C887.795959,558.677551 886.794312,551.777405 885.064575,545.270508 
	C883.465942,539.256714 880.274475,533.666382 878.015625,527.633423 
	C917.211670,504.073547 956.188904,480.790405 995.135132,457.455566 
	C1010.245422,448.402252 1025.285645,439.232056 1040.357788,430.115112 
z"/>
<path fill="#3DDC84" opacity="1.000000" stroke="none" 
	d="
M1040.159058,429.801514 
	C1025.285645,439.232056 1010.245422,448.402252 995.135132,457.455566 
	C956.188904,480.790405 917.211670,504.073547 877.795532,527.611084 
	C877.344238,527.844849 876.903198,527.782654 876.747986,527.508911 
	C870.823486,521.541138 865.803589,514.680786 859.130615,510.393005 
	C844.745422,501.149567 829.511169,493.227356 814.623474,484.766052 
	C788.027710,469.650574 761.458679,454.487671 734.827515,439.434906 
	C707.759827,424.135376 680.637878,408.931671 653.525635,393.710999 
	C634.996704,383.308960 615.697266,381.661896 596.914429,391.767334 
	C573.650024,404.283905 551.056396,418.057312 528.285645,431.478973 
	C483.174225,458.068787 438.106842,484.733795 393.101135,511.502014 
	C383.683289,517.103516 375.804291,524.351990 371.621521,535.000366 
	C331.479340,512.642700 291.665161,490.394470 251.887604,468.080902 
	C236.512314,459.455963 221.220078,450.682892 205.889984,441.977295 
	C210.541794,430.972656 217.418182,421.667114 226.462646,413.794281 
	C242.390564,399.929779 261.672363,391.434479 279.355469,380.397217 
	C298.698151,368.324188 318.505035,356.992401 338.157959,345.419678 
	C359.923340,332.603027 381.775146,319.933136 403.530182,307.099060 
	C422.470398,295.925568 441.286896,284.542297 460.233490,273.379730 
	C481.709778,260.726807 503.301788,248.270386 524.783264,235.626236 
	C540.650879,226.286499 556.232666,216.444107 572.299561,207.465897 
	C583.880310,200.994568 596.481201,197.461563 609.837341,195.811279 
	C629.917419,193.330185 648.667847,197.174088 666.392395,205.998795 
	C680.237732,212.892090 693.517700,220.927338 706.999512,228.542618 
	C718.923096,235.277725 730.765686,242.156204 742.666992,248.930908 
	C761.785950,259.814178 780.908203,270.692047 800.059265,281.518677 
	C813.968872,289.382141 827.945435,297.127197 841.859802,304.982269 
	C861.588074,316.119446 881.276428,327.327362 901.001343,338.470459 
	C914.913940,346.330048 928.880310,354.094513 942.784302,361.969177 
	C961.928711,372.811768 981.216797,383.417877 1000.084656,394.723907 
	C1009.564392,400.404297 1018.659729,406.918091 1027.143433,413.996277 
	C1032.202515,418.217133 1035.739258,424.262665 1040.159058,429.801514 
z"/>
<path fill="#083042" opacity="1.000000" stroke="none" 
	d="
M205.633102,442.206879 
	C221.220078,450.682892 236.512314,459.455963 251.887604,468.080902 
	C291.665161,490.394470 331.479340,512.642700 371.643524,535.203979 
	C372.008148,535.490906 372.087921,535.892639 371.779236,536.083008 
	C365.910065,544.734741 365.231812,554.565491 365.198456,564.033447 
	C364.913208,644.978394 364.855804,725.925537 365.186737,806.870117 
	C365.252350,822.918152 372.897827,835.338989 387.444824,843.280579 
	C404.664459,852.681152 421.648376,862.513733 438.730469,872.166077 
	C465.222504,887.135681 491.710236,902.112976 518.201721,917.083496 
	C543.100769,931.154053 568.061646,945.116638 592.876099,959.334778 
	C604.053833,965.739380 615.756287,969.928772 628.856567,970.016296 
	C628.964600,970.012817 629.178345,969.981445 629.178345,969.981445 
	C629.118896,973.968506 629.010071,977.955444 629.007385,981.942566 
	C628.967590,1040.969238 628.941895,1099.995850 628.995728,1159.480835 
	C610.556946,1160.199341 593.440063,1155.562622 577.329224,1146.273560 
	C552.736145,1132.093994 527.811646,1118.490479 503.094360,1104.524658 
	C476.502747,1089.499634 450.021759,1074.278687 423.428955,1059.255859 
	C401.022919,1046.598022 378.485535,1034.172729 356.079529,1021.514832 
	C329.486786,1006.491821 302.991150,991.297058 276.417328,976.240417 
	C260.095154,966.992310 243.488464,958.225403 227.403030,948.585815 
	C209.095230,937.614258 198.311340,921.252625 196.084702,899.856079 
	C195.176208,891.126038 195.063889,882.284424 195.059723,873.493347 
	C194.999023,745.203552 194.922165,616.913574 195.139908,488.624176 
	C195.166992,472.658722 197.838440,456.916168 205.633102,442.206879 
z"/>
<path fill="#3870B2" opacity="1.000000" stroke="none" 
	d="
M876.903198,527.782715 
	C876.903198,527.782654 877.344238,527.844849 877.564331,527.867188 
	C880.274475,533.666382 883.465942,539.256714 885.064575,545.270508 
	C886.794312,551.777405 887.795959,558.677551 887.812866,565.409424 
	C887.998169,639.394531 887.987915,713.380371 887.886597,787.365845 
	C887.862305,805.111816 883.088196,821.505981 869.976318,834.030029 
	C863.698242,840.026672 855.935242,844.622375 848.415161,849.137024 
	C823.162231,864.297363 797.717834,879.138977 772.343384,894.096802 
	C734.354309,916.490662 696.353638,938.864868 658.378174,961.281799 
	C649.597839,966.464905 640.039001,968.971802 629.585815,969.963379 
	C629.178345,969.981445 628.964600,970.012817 628.942261,969.553223 
	C628.726990,956.116394 628.385925,943.139221 628.376038,930.161804 
	C628.361511,911.178406 628.584290,892.194885 629.134644,873.128296 
	C636.397888,870.666199 643.828125,869.312683 649.971375,865.743835 
	C693.402405,840.512634 736.554199,814.801086 779.829163,789.300537 
	C794.126038,780.875854 801.152710,768.383179 801.161682,751.895996 
	C801.188599,702.577148 801.109802,653.258118 801.228149,603.939514 
	C801.249390,595.109009 799.799744,586.805725 795.562988,578.957947 
	C822.858765,561.774048 849.880981,544.778381 876.903198,527.782715 
z"/>
<path fill="#37BF6E" opacity="1.000000" stroke="none" 
	d="
M876.747986,527.508972 
	C849.880981,544.778381 822.858765,561.774048 795.353149,578.664307 
	C790.230591,571.166687 783.769104,565.887024 776.118958,561.789978 
	C765.715515,556.218445 755.429321,550.424316 745.159668,544.607727 
	C712.060486,525.860840 678.992493,507.058624 645.911011,488.280487 
	C638.748047,484.214539 630.822144,481.406158 622.845032,482.320679 
	C615.495300,483.163239 607.850830,485.595795 601.382385,489.203674 
	C579.937622,501.164612 558.964783,513.971680 537.811279,526.454773 
	C517.207581,538.613403 496.664642,550.876770 475.972687,562.883362 
	C466.988495,568.096497 459.208588,574.289185 454.600098,583.929321 
	C453.442505,583.268982 452.614258,582.716492 451.755219,582.216858 
	C425.201294,566.772278 398.644379,551.332825 372.087921,535.892639 
	C372.087921,535.892639 372.008148,535.490906 371.986145,535.287231 
	C375.804291,524.351990 383.683289,517.103516 393.101135,511.502014 
	C438.106842,484.733795 483.174225,458.068787 528.285645,431.478973 
	C551.056396,418.057312 573.650024,404.283905 596.914429,391.767334 
	C615.697266,381.661896 634.996704,383.308960 653.525635,393.710999 
	C680.637878,408.931671 707.759827,424.135376 734.827515,439.434906 
	C761.458679,454.487671 788.027710,469.650574 814.623474,484.766052 
	C829.511169,493.227356 844.745422,501.149567 859.130615,510.393005 
	C865.803589,514.680786 870.823486,521.541138 876.747986,527.508972 
z"/>
<path fill="#041619" opacity="1.000000" stroke="none" 
	d="
M371.779236,536.083008 
	C398.644379,551.332825 425.201294,566.772278 451.755219,582.216858 
	C452.614258,582.716492 453.442505,583.268982 454.601593,584.312378 
	C453.938263,589.250183 452.121002,593.669739 452.105743,598.095398 
	C451.912506,654.073059 451.994629,710.051697 451.956055,766.030029 
	C451.951843,772.101135 453.787506,777.987000 458.308380,781.380859 
	C467.385834,788.195251 477.086517,794.281555 486.959320,799.916016 
	C522.405396,820.145203 557.988525,840.135681 593.612915,860.049866 
	C604.603821,866.193787 615.114807,873.886414 628.705994,873.211426 
	C628.584290,892.194885 628.361511,911.178406 628.376038,930.161804 
	C628.385925,943.139221 628.726990,956.116394 628.834290,969.556763 
	C615.756287,969.928772 604.053833,965.739380 592.876099,959.334778 
	C568.061646,945.116638 543.100769,931.154053 518.201721,917.083496 
	C491.710236,902.112976 465.222504,887.135681 438.730469,872.166077 
	C421.648376,862.513733 404.664459,852.681152 387.444824,843.280579 
	C372.897827,835.338989 365.252350,822.918152 365.186737,806.870117 
	C364.855804,725.925537 364.913208,644.978394 365.198456,564.033447 
	C365.231812,554.565491 365.910065,544.734741 371.779236,536.083008 
z"/>
<path fill="#D6F0FF" opacity="1.000000" stroke="none" 
	d="
M629.134644,873.128296 
	C615.114807,873.886414 604.603821,866.193787 593.612915,860.049866 
	C557.988525,840.135681 522.405396,820.145203 486.959320,799.916016 
	C477.086517,794.281555 467.385834,788.195251 458.308380,781.380859 
	C453.787506,777.987000 451.951843,772.101135 451.956055,766.030029 
	C451.994629,710.051697 451.912506,654.073059 452.105743,598.095398 
	C452.121002,593.669739 453.938263,589.250183 454.916565,584.444824 
	C459.208588,574.289185 466.988495,568.096497 475.972687,562.883362 
	C496.664642,550.876770 517.207581,538.613403 537.811279,526.454773 
	C558.964783,513.971680 579.937622,501.164612 601.382385,489.203674 
	C607.850830,485.595795 615.495300,483.163239 622.845032,482.320679 
	C630.822144,481.406158 638.748047,484.214539 645.911011,488.280487 
	C678.992493,507.058624 712.060486,525.860840 745.159668,544.607727 
	C755.429321,550.424316 765.715515,556.218445 776.118958,561.789978 
	C783.769104,565.887024 790.230591,571.166687 795.079590,578.852539 
	C799.799744,586.805725 801.249390,595.109009 801.228149,603.939514 
	C801.109802,653.258118 801.188599,702.577148 801.161682,751.895996 
	C801.152710,768.383179 794.126038,780.875854 779.829163,789.300537 
	C736.554199,814.801086 693.402405,840.512634 649.971375,865.743835 
	C643.828125,869.312683 636.397888,870.666199 629.134644,873.128296 
z"/>
</svg>